<?xml version="1.0" encoding="UTF-8"?>
<svg id="Layer_1" xmlns="http://www.w3.org/2000/svg" version="1.1" viewBox="0 0 1080 280">
  <!-- Generator: Adobe Illustrator 30.3.0, SVG Export Plug-In . SVG Version: 2.1.3 Build 182)  -->
  <defs>
    <style>
      .st0 {
        fill: #d04d1a;
      }

      .st1 {
        fill: #fff;
      }
    </style>
  </defs>
  <g id="Layer_11" data-name="Layer_1">
    <g>
      <polygon class="st1" points="126.04 123.92 126.04 13.37 15.49 13.37 15.49 234.47 126.04 234.47 236.59 234.47 236.59 123.92 126.04 123.92"/>
      <path class="st1" d="M369.09,11.95l-124.37,221.1h248.74L369.09,11.95Z"/>
      <path class="st1" d="M571.82,15.32v72.61h28.53v16.81h-50.32V15.32h21.79Z"/>
      <path class="st1" d="M643.14,86.9c7.77,0,15.03-5.73,15.03-17.71s-7.13-17.7-14.78-17.7-14.77,5.6-14.77,17.7,6.62,17.71,14.52,17.71M643.14,105.75c-20.89,0-36.69-14.01-36.69-36.56s16.18-36.56,36.94-36.56,36.94,14.02,36.94,36.56-16.3,36.56-37.2,36.56"/>
      <path class="st1" d="M725.29,51.62c-8.15,0-15.54,6.12-15.54,17.45s7.39,17.71,15.54,17.71,15.54-6.24,15.54-17.58-7.26-17.58-15.54-17.58M718.92,32.64c10.44,0,18.09,4.71,21.91,11.09v-10.06h21.79v70.95c0,18.98-10.96,35.16-35.54,35.16-21.14,0-34.9-10.7-36.81-27.64h21.53c1.4,5.35,6.75,8.79,14.27,8.79,8.28,0,14.77-4.33,14.77-16.3v-10.06c-3.95,6.24-11.46,11.21-21.91,11.21-17.45,0-31.34-14.27-31.34-36.68s13.89-36.43,31.34-36.43"/>
      <path class="st1" d="M842.69,104.73h-21.79v-9.68c-4.33,6.11-11.97,10.45-21.52,10.45-16.43,0-27.52-11.34-27.52-30.32v-41.53h21.65v38.6c0,9.68,5.48,15.03,13.63,15.03s13.75-5.35,13.75-15.03v-38.6h21.79v71.08h.01Z"/>
      <path class="st1" d="M586.86,168.82l-10.96,32.73h22.04l-11.08-32.73h0ZM603.55,218.37h-33.38l-5.35,15.8h-22.8l32.35-89.42h25.22l32.35,89.42h-23.05l-5.35-15.8h.01Z"/>
      <path class="st1" d="M676,181.05c-8.15,0-15.54,6.24-15.54,17.58s7.39,17.58,15.54,17.58,15.67-6.37,15.67-17.7-7.39-17.45-15.67-17.45M682.49,162.07c17.45,0,31.34,14.01,31.34,36.43s-13.88,36.68-31.34,36.68c-10.44,0-17.96-4.97-21.91-10.95v43.82h-21.78v-104.96h21.78v10.06c3.95-6.24,11.46-11.08,21.91-11.08"/>
      <path class="st1" d="M719.38,162.32h21.78v29.68l21.53-28.91h26.88l-29.55,35.66,29.81,35.41h-27l-21.66-29.8v29.8h-21.78v-71.84h-.01Z"/>
      <path class="st1" d="M824.56,216.33c7.77,0,15.03-5.73,15.03-17.7s-7.13-17.71-14.78-17.71-14.77,5.6-14.77,17.71,6.62,17.7,14.52,17.7M824.56,235.18c-20.89,0-36.69-14.01-36.69-36.55s16.18-36.56,36.94-36.56,36.94,14.02,36.94,36.56-16.3,36.55-37.2,36.55"/>
      <path class="st1" d="M907.59,181.05c-8.15,0-15.54,6.24-15.54,17.58s7.39,17.58,15.54,17.58,15.67-6.37,15.67-17.7-7.39-17.45-15.67-17.45M914.08,162.07c17.45,0,31.34,14.01,31.34,36.43s-13.89,36.68-31.34,36.68c-10.45,0-17.96-4.97-21.91-10.95v43.82h-21.78v-104.96h21.78v10.06c3.95-6.24,11.46-11.08,21.91-11.08"/>
      <path class="st1" d="M974.32,191.75h27.26c0-7.77-6.11-12.23-13.38-12.23s-12.61,4.33-13.88,12.23M988.46,235.18c-20.89,0-35.92-14.01-35.92-36.55s14.78-36.56,35.92-36.56,35.41,13.76,35.41,35.41c0,2.04-.13,4.2-.38,6.37h-49.3c.77,9.3,6.5,13.62,13.5,13.62,6.11,0,9.56-3.05,11.34-6.88h23.18c-3.44,13.88-16.05,24.58-33.76,24.58"/>
    </g>
    <rect class="st0" x="1042.46" y="212.42" width="22.05" height="22.05"/>
  </g>
</svg>