<?xml version="1.0" encoding="UTF-8"?>
<svg xmlns="http://www.w3.org/2000/svg" viewBox="420 420 1080 280" role="img" aria-label="SIA Logu Apkope">
  <title>SIA Logu Apkope</title>
  <g fill="#1E3A2E" fill-rule="nonzero">
    <path d="M546.039 654.469 L435.488 654.469 L435.488 433.371 L546.039 433.371 Z"/>
    <path d="M656.590 654.469 L546.039 654.469 L546.039 543.922 L656.590 543.922 Z"/>
    <path d="M789.086 431.945 L664.715 653.047 L913.453 653.047 Z"/>
    <path d="M991.816 435.316 L991.816 507.922 L1020.348 507.922 L1020.348 524.734 L970.031 524.734 L970.031 435.316 Z"/>
    <path d="M1063.141 506.902 C1070.910 506.902 1078.172 501.172 1078.172 489.195 C1078.172 477.094 1071.039 471.492 1063.395 471.492 C1055.500 471.492 1048.621 477.094 1048.621 489.195 C1048.621 501.172 1055.242 506.902 1063.141 506.902 M1063.141 525.754 C1042.250 525.754 1026.453 511.742 1026.453 489.195 C1026.453 466.652 1042.633 452.637 1063.395 452.637 C1084.285 452.637 1100.336 466.652 1100.336 489.195 C1100.336 511.742 1084.035 525.754 1063.141 525.754"/>
    <path d="M1145.289 471.617 C1137.137 471.617 1129.750 477.734 1129.750 489.070 C1129.750 500.406 1137.137 506.777 1145.289 506.777 C1153.570 506.777 1160.828 500.535 1160.828 489.195 C1160.828 477.859 1153.570 471.617 1145.289 471.617 M1138.922 452.637 C1149.367 452.637 1157.012 457.352 1160.828 463.723 L1160.828 453.660 L1182.613 453.660 L1182.613 524.609 C1182.613 543.590 1171.656 559.766 1147.074 559.766 C1125.930 559.766 1112.172 549.066 1110.262 532.125 L1131.789 532.125 C1133.191 537.473 1138.539 540.914 1146.055 540.914 C1154.332 540.914 1160.828 536.582 1160.828 524.609 L1160.828 514.547 C1156.879 520.789 1149.367 525.754 1138.922 525.754 C1121.469 525.754 1107.582 511.488 1107.582 489.070 C1107.582 466.652 1121.469 452.637 1138.922 452.637"/>
    <path d="M1262.691 524.734 L1240.906 524.734 L1240.906 515.055 C1236.578 521.168 1228.934 525.500 1219.383 525.500 C1202.949 525.500 1191.867 514.164 1191.867 495.184 L1191.867 453.656 L1213.520 453.656 L1213.520 492.254 C1213.520 501.934 1219.000 507.285 1227.152 507.285 C1235.559 507.285 1240.906 501.934 1240.906 492.254 L1240.906 453.656 L1262.691 453.656 Z"/>
    <path d="M1006.859 588.820 L995.902 621.555 L1017.941 621.555 Z M1023.547 638.371 L990.172 638.371 L984.820 654.168 L962.020 654.168 L994.375 564.746 L1019.594 564.746 L1051.949 654.168 L1028.895 654.168 Z"/>
    <path d="M1095.996 601.047 C1087.844 601.047 1080.457 607.289 1080.457 618.625 C1080.457 629.965 1087.844 636.203 1095.996 636.203 C1104.273 636.203 1111.664 629.836 1111.664 618.500 C1111.664 607.164 1104.273 601.047 1095.996 601.047 M1102.492 582.070 C1119.945 582.070 1133.828 596.082 1133.828 618.500 C1133.828 640.918 1119.945 655.184 1102.492 655.184 C1092.047 655.184 1084.531 650.219 1080.582 644.230 L1080.582 688.047 L1058.801 688.047 L1058.801 583.090 L1080.582 583.090 L1080.582 593.152 C1084.531 586.910 1092.047 582.070 1102.492 582.070"/>
    <path d="M1139.383 582.324 L1161.168 582.324 L1161.168 612.004 L1182.695 583.090 L1209.574 583.090 L1180.020 618.754 L1209.828 654.164 L1182.824 654.164 L1161.168 624.359 L1161.168 654.164 L1139.383 654.164 Z"/>
    <path d="M1244.559 636.332 C1252.328 636.332 1259.590 630.602 1259.590 618.629 C1259.590 606.523 1252.457 600.922 1244.813 600.922 C1236.918 600.922 1230.039 606.523 1230.039 618.629 C1230.039 630.602 1236.660 636.332 1244.559 636.332 M1244.559 655.184 C1223.668 655.184 1207.871 641.172 1207.871 618.629 C1207.871 596.082 1224.051 582.066 1244.813 582.066 C1265.703 582.066 1281.754 596.082 1281.754 618.629 C1281.754 641.172 1265.453 655.184 1244.559 655.184"/>
    <path d="M1327.586 601.047 C1319.434 601.047 1312.047 607.289 1312.047 618.625 C1312.047 629.965 1319.434 636.203 1327.586 636.203 C1335.863 636.203 1343.254 629.836 1343.254 618.500 C1343.254 607.164 1335.863 601.047 1327.586 601.047 M1334.082 582.070 C1351.531 582.070 1365.418 596.082 1365.418 618.500 C1365.418 640.918 1351.531 655.184 1334.082 655.184 C1323.637 655.184 1316.121 650.219 1312.172 644.230 L1312.172 688.047 L1290.391 688.047 L1290.391 583.090 L1312.172 583.090 L1312.172 593.152 C1316.121 586.910 1323.637 582.070 1334.082 582.070"/>
    <path d="M1394.320 611.750 L1421.578 611.750 C1421.578 603.977 1415.465 599.520 1408.203 599.520 C1401.070 599.520 1395.594 603.852 1394.320 611.750 M1408.457 655.184 C1387.570 655.184 1372.535 641.172 1372.535 618.629 C1372.535 596.082 1387.313 582.066 1408.457 582.066 C1429.223 582.066 1443.871 595.828 1443.871 617.480 C1443.871 619.520 1443.742 621.684 1443.488 623.852 L1394.191 623.852 C1394.957 633.148 1400.688 637.477 1407.695 637.477 C1413.809 637.477 1417.250 634.422 1419.031 630.602 L1442.215 630.602 C1438.777 644.484 1426.164 655.184 1408.457 655.184"/>
  </g>
  <rect x="1462.461" y="632.421" width="22.051" height="22.047" fill="#D04D1A"/>
</svg>
